<?xml version="1.0" encoding="UTF-8"?>
<svg width="98px" height="106px" viewBox="0 0 98 106" version="1.1" xmlns="http://www.w3.org/2000/svg" xmlns:xlink="http://www.w3.org/1999/xlink">
    <title>Full width bottom banner</title>
    <g stroke="none" stroke-width="1" fill="none" fill-rule="evenodd">
        <g transform="translate(49.000000, 52.600000) scale(1, -1) translate(-49.000000, -52.600000) translate(0.000000, 0.100000)">
            <polygon id="Right-column" fill="#EDEDED" points="81 40 89.5 40 98 40 98 61.9399818 98 83.8799637 89.5 83.8799637 81 83.8799637 81 61.9399818"></polygon>
            <polygon id="left-column" fill="#EDEDED" points="0 62 0 40 8.5 40 17 40 17 62 17 84 8.5 84 0 84"></polygon>
            <polygon id="content" fill="#EDEDED" points="23 62 23 40 49.2309171 40 75.4618342 40 75.4618342 62 75.4618342 84 49.2309171 84 23 84"></polygon>
            <polygon id="header" fill="#EDEDED" points="0 96.6200195 0 89.1200195 49 89.1200195 98 89.1200195 98 96.6200195 98 104.12002 49 104.12002 0 104.12002"></polygon>
            <polygon id="footer" fill="#EDEDED" points="0 7.5 0 0 49 0 98 0 98 7.5 98 15 49 15 0 15"></polygon>
            <polygon id="banner" fill="#F78601" points="0 27.5 0 20 49 20 98 20 98 27.5 98 35 49 35 0 35"></polygon>
        </g>
    </g>
</svg>