<?xml version="1.0" encoding="UTF-8"?>
<svg width="98px" height="106px" viewBox="0 0 98 106" version="1.1" xmlns="http://www.w3.org/2000/svg" xmlns:xlink="http://www.w3.org/1999/xlink">
    <title>Full width top banner</title>
    <g stroke="none" stroke-width="1" fill="none" fill-rule="evenodd">
        <g transform="translate(49.000000, 52.600000) scale(1, -1) translate(-49.000000, -52.600000) translate(0.000000, 0.100000)">
            <polygon id="Right-column" fill="#EDEDED" points="81 20.0000168 89.5 20.0000168 98 20.0000168 98 42.0000168 98 64.0000168 89.5 64.0000168 81 64.0000168 81 42.0000168"></polygon>
            <polygon id="left-column" fill="#EDEDED" points="0 42.0000656 0 20.0000656 8.5 20.0000656 17 20.0000656 17 42.0000656 17 64.0000656 8.5 64.0000656 0 64.0000656"></polygon>
            <polygon id="content" fill="#EDEDED" points="22.7690829 42.0000168 22.7690829 20.0000168 49 20.0000168 75.2309171 20.0000168 75.2309171 42.0000168 75.2309171 64.0000168 49 64.0000168 22.7690829 64.0000168"></polygon>
            <polygon id="header" fill="#EDEDED" points="0 96.6200195 0 89.1200195 49 89.1200195 98 89.1200195 98 96.6200195 98 104.12002 49 104.12002 0 104.12002"></polygon>
            <polygon id="footer" fill="#EDEDED" points="0 7.5 0 0 49 0 98 0 98 7.5 98 15 49 15 0 15"></polygon>
            <polygon id="banner" fill="#F78601" points="0 76.5 0 69 49 69 98 69 98 76.5 98 84 49 84 0 84"></polygon>
        </g>
    </g>
</svg>